<svg width="400" height="100" viewBox="0 0 400 100" xmlns="http://www.w3.org/2000/svg">
  <!-- FoundryData Wordmark Dark - For dark backgrounds -->
  
  <!-- Icon scaled and vertically centered -->
  <g transform="translate(10, 25) scale(0.25)">
    <!-- Left bracket -->
    <path d="M 70 60 L 50 60 L 50 140 L 70 140 L 70 130 L 60 130 L 60 70 L 70 70 Z" fill="#60A5FA"/>
    
    <!-- Data blocks -->
    <rect x="84" y="84" width="16" height="16" fill="#60A5FA" rx="2"/>
    <rect x="104" y="84" width="16" height="16" fill="#93C5FD" rx="2"/>
    <rect x="124" y="84" width="16" height="16" fill="#DBEAFE" rx="2"/>
    
    <rect x="84" y="104" width="16" height="16" fill="#34D399" rx="2"/>
    <rect x="104" y="104" width="16" height="16" fill="#6EE7B7" rx="2"/>
    <rect x="124" y="104" width="16" height="16" fill="#A7F3D0" rx="2"/>
    
    <!-- Right bracket -->
    <path d="M 154 60 L 174 60 L 174 140 L 154 140 L 154 130 L 164 130 L 164 70 L 154 70 Z" fill="#60A5FA"/>
  </g>
  
  <!-- Text in white, properly aligned -->
  <text x="75" y="57" font-family="-apple-system, BlinkMacSystemFont, 'Segoe UI', 'Roboto', 'Helvetica', 'Arial', sans-serif" font-size="36" font-weight="600" fill="white">
    FoundryData
  </text>
</svg>